<svg xmlns="http://www.w3.org/2000/svg" viewBox="0 0 879.67716 338.20704"><defs><style>.cls-1{fill:#fff;}</style></defs><title>Asset 11x</title><g id="Layer_2" data-name="Layer 2"><g id="Layer_1-2" data-name="Layer 1"><path class="cls-1" d="M859.6767,171.03215a3.38728,3.38728,0,0,1,.77837-.21881q8.98381-.01416,17.96762.00365a3.06466,3.06466,0,0,1,.764.23528,9.57571,9.57571,0,0,1,.17486,1.14823c.02947.80841.01554,1.6185.01559,2.42789q.00053,69.69068.056,139.38122c.01631,7.029.22331,14.06421.24281,21.09793.00249.886.00036,1.77212.00036,2.7627a10.60121,10.60121,0,0,1-1.45314.30958c-.72518.04921-1.456.01669-2.18449.01669q-80.1321.00027-160.26426.00018h-3.23555a4.9022,4.9022,0,0,1-.3349-1.18815q-.02713-8.86285-.00231-17.72582a4.49377,4.49377,0,0,1,.19407-.83985c.448-.05176.90609-.13626,1.36639-.151.80861-.02582,1.61858-.00981,2.428-.00981q69.93351-.00022,139.867-.00572a11.64793,11.64793,0,0,0,3.19926-.17676,10.11777,10.11777,0,0,0,.19188-1.206c.03054-.80834.01631-1.61846.01637-2.42786q.00053-70.17615.00646-140.35228A9.10255,9.10255,0,0,1,859.6767,171.03215Z"/><path class="cls-1" d="M.08462.30333A3.17912,3.17912,0,0,1,.8957.02386Q83.57229-.00237,166.24889.00017a5.01694,5.01694,0,0,1,.9969.218,9.28333,9.28333,0,0,1,.20783,1.18865c.18912,4.23577.05157,16.58611-.21606,18.59142a11.79285,11.79285,0,0,1-1.30649.18887c-.808.03324-1.61835.0127-2.42771.0127q-70.17245.00027-140.34491.00845a8.02256,8.02256,0,0,0-3.16861.24582,10.73409,10.73409,0,0,0-.17235,1.19142c-.02817.80846-.01476,1.61844-.01476,2.42779q-.00051,69.92964-.00283,139.85928c-.00007,1.038-.0377,2.076-.054,2.91728a3.34047,3.34047,0,0,1-.3416.35332.45876.45876,0,0,1-.22661.08147q-8.85744.04787-17.71493.08187A7.58475,7.58475,0,0,1,.418,167.21545a12.29287,12.29287,0,0,1-.22153-1.40393c-.03713-.80772-.0134-1.61828-.01341-2.42764Q.18278,93.94.1745,24.49612C.172,17.29675.05415,10.09746.00048,2.898-.006,2.02549.05546,1.15242.08462.30333Z"/><path class="cls-1" d="M766.19876,103.68922a49.92713,49.92713,0,0,0-5.60865,8.25616c-1.727,2.83134-3.42,5.68339-5.12386,8.52878s-3.39956,5.6957-5.1047,8.5403c-1.70236,2.83993-3.41207,5.67546-5.17088,8.59988a39.54154,39.54154,0,0,1-5.45289-.02513c-6.87051-11.19614-13.64976-22.45706-20.52608-33.67577a3.30372,3.30372,0,0,0-.41151.29725.59522.59522,0,0,0-.09707.20864,1.35942,1.35942,0,0,0-.04412.23731c-.00949.0802-.01133.1614-.01435.24226s-.004.16177-.00468.24266c-.00142.16185-.00285.32368-.00291.48552q-.00347,18.93547-.00741,37.87095c0,.1617-.00961.32348-.01773.48508a2.30708,2.30708,0,0,1-.02348.24089,1.75054,1.75054,0,0,1-.0523.23688c-.02253.07409-.05627.14478-.13507.34235-1.74541.47-3.60087.16723-5.42988.22108-1.77494.05227-3.55254.01134-5.43587.01134-.11011-.55141-.23682-.99949-.28029-1.45547-.04584-.48127-.01322-.9701-.01322-1.45562q-.00027-29.13153-.00018-58.263V81.097a8.35287,8.35287,0,0,1,1.454-.28545c2.74554-.02481,5.49143-.0124,8.33349-.0124.4982.78277.98554,1.5126,1.43749,2.2637q11.38535,18.92149,22.76548,37.84608c.40291.66965.84561,1.31539,1.24555,1.93469a2.79543,2.79543,0,0,0,.3738-.12148.56061.56061,0,0,0,.18494-.155c.14-.19683.2772-.3967.40006-.6045q12.04584-20.36282,24.09013-40.72647a1.39789,1.39789,0,0,1,.15707-.18467,48.11631,48.11631,0,0,1,9.75325-.033,13.02185,13.02185,0,0,1,.19781,1.57966c.028,2.91291.03036,5.82609.033,8.73919q.02286,25.24716.039,50.49433c.00059.95655-.04139,1.91311-.06244,2.82329-1.80126.46683-8.237.5427-11.0779.1414-.0536-.57835-.157-1.19645-.16093-1.81521q-.04251-6.67542-.05052-13.35107-.03086-11.895-.06066-23.7899C766.292,105.12311,766.232,104.4062,766.19876,103.68922Z"/><path class="cls-1" d="M418.8609,144.9354H407.28845a13.32237,13.32237,0,0,1-.24628-1.38128c-.043-.56347-.01346-1.13255-.01346-1.6992q-.00027-28.89923-.00015-57.79845c0-.96246,0-1.92493,0-2.83347,1.71727-.52711,5.61523-.62979,9.98234-.28477l34.722,42.46113c.6582-.18381.58423-.6298.58723-1.01157.01281-1.61892.009-3.238.009-4.857q.00058-16.87812.00359-33.75624c.00039-.87648.04758-1.753.07593-2.72864a13.17626,13.17626,0,0,1,3.91154-.24218c1.29408-.03829,2.59066-.03116,3.88521-.002a16.56519,16.56519,0,0,1,3.918.19188,10.60321,10.60321,0,0,1,.15126,1.24054q.01045,31.18919.00614,62.31637c-1.64123.59415-4.66746.69731-9.94288.37446-.525-.61733-1.16034-1.33716-1.76631-2.08091q-15.95161-19.579-31.90479-39.1567c-.431-.52836-.72633-1.24777-1.698-1.47046a23.85931,23.85931,0,0,0-.103,3.62633c-.02256,1.13285-.00492,2.26651-.00492,3.39981V144.9354Z"/><path class="cls-1" d="M663.24494,115.96554c-.15393,8.324-4.62774,17.55256-14.17684,24.109a32.77342,32.77342,0,0,1-12.49328,5.11776,38.07391,38.07391,0,0,1-22.626-2.06278c-11.24808-4.80836-17.86309-13.35993-19.69975-25.43912a32.77769,32.77769,0,0,1,1.05474-14.66316c3.06182-9.96013,9.63615-16.75687,19.19325-20.54614a37.49949,37.49949,0,0,1,28.21475-.02231C654.96433,87.23558,663.32736,98.31031,663.24494,115.96554ZM628.541,135.4783c1.049-.07184,2.10568-.08605,3.14584-.22468,7.86477-1.048,13.83186-4.94087,17.25205-12.16288a23.48031,23.48031,0,0,0,.04157-20.43547,19.35119,19.35119,0,0,0-8.56392-9.31132,24.263,24.263,0,0,0-18.11984-2.16937c-7.82427,2.02612-12.96105,7.01544-15.33475,14.76a23.31036,23.31036,0,0,0-.753,10.09171c1.1502,8.36934,5.51716,14.35666,13.328,17.71421A23.27925,23.27925,0,0,0,628.541,135.4783Z"/><path class="cls-1" d="M744.1227,239.76295c-4.038-.29126-15.06917-.17554-16.99916.19888-.03836.74036-.11242,1.527-.11438,2.31375-.01133,4.53224-.00018,9.06445-.01091,13.5967-.0019.79292-.07121,1.58573-.10715,2.33139a56.254,56.254,0,0,1-11.60189.18992,10.76989,10.76989,0,0,1-.26031-1.30037c-.04791-.56256-.01518-1.13209-.01518-1.69862q-.00027-29.13578-.00018-58.27151v-2.7492a8.69164,8.69164,0,0,1,1.4921-.28146c8.82161-.011,17.644-.06975,26.46448.03119a33.51222,33.51222,0,0,1,12.09493,2.30451,22.38118,22.38118,0,0,1,9.81634,7.27584,20.63162,20.63162,0,0,1,3.93155,10.55126,24.11824,24.11824,0,0,1-1.06452,10.3051,19.74345,19.74345,0,0,1-9.8786,11.47789c-.71059.37943-1.42812.746-2.138,1.12672-.06273.03365-.09238.12894-.24768.35894,1.49981,2.28072,3.14963,4.55285,4.75309,6.85518,1.57233,2.25757,3.17181,4.4964,4.72883,6.7644,1.59077,2.317,3.30018,4.55706,4.7229,6.87128a1.9824,1.9824,0,0,1-.19893.38287.37974.37974,0,0,1-.2083.09042,6.081,6.081,0,0,1-.72227.06205c-3.71756.00382-7.43518.0027-11.26385.0027-2.329-3.12745-4.47351-6.35518-6.70656-9.518C748.39745,245.93067,746.2403,242.8022,744.1227,239.76295ZM727.181,229.60966a15.46621,15.46621,0,0,0,1.70864.19739c3.96239.01524,7.92525.04,11.887-.0115a37.879,37.879,0,0,0,4.59-.36979,15.85922,15.85922,0,0,0,5.724-1.88155,10.71063,10.71063,0,0,0,5.1101-6.21775,14.38471,14.38471,0,0,0,.45-6.95609c-.87359-4.99307-3.92112-8.059-8.75194-9.28134a27.6626,27.6626,0,0,0-5.99211-.80174c-4.44451-.12055-8.89419-.05283-13.34173-.04a7.94213,7.94213,0,0,0-1.34167.22448c-.31658,2.27186-.41738,13.6528-.21245,23.3796C727.02262,228.40482,727.11571,228.95656,727.181,229.60966Z"/><path class="cls-1" d="M246.3096,106.88423c0-4.41073-.00044-8.69036.00012-12.97.00056-4.26947-.00305-8.539.00353-12.89377a16.42506,16.42506,0,0,1,4.0272-.21826c1.29382-.03123,2.58947-.029,3.88344-.00064a17.31,17.31,0,0,1,3.82165.16211,2.89982,2.89982,0,0,1,.24616.75769q.0153,31.19052.00071,62.38108a2.25056,2.25056,0,0,1-.20228.64962,66.88388,66.88388,0,0,1-11.40157.14627c-.62784-.66777-.36493-1.51684-.367-2.28965q-.02975-11.04439-.012-22.08889c0-.88323,0-1.76644,0-2.76535a11.92418,11.92418,0,0,0-1.74206-.27437q-14.80679-.02339-29.61365-.00308a15.45821,15.45821,0,0,0-1.7897.22209c-.15377,3.07136-.0579,6.05506-.07461,9.0349-.01678,2.99366.00866,5.98752-.00717,8.98119-.01576,2.98123.07477,5.96552-.07127,9.05184a12.22027,12.22027,0,0,1-3.89255.25976c-1.29333.04032-2.58892.01481-3.88347.00725-1.27895-.00747-2.55782-.02854-3.98385-.04538-.05921-.86494-.14757-1.567-.149-2.26917q-.0171-8.4957-.00648-16.99147,0-20.87524.00248-41.7505c.00024-.95584.0359-1.91167.05688-2.95649a15.09589,15.09589,0,0,1,3.94857-.21813c1.2937-.03414,2.58949-.03,3.88342-.00122a16.52,16.52,0,0,1,3.78824.16216,5.34227,5.34227,0,0,1,.30132,2.71014c.0165,6.87747.0055,13.755.01393,20.6325.00107.8688.0658,1.73755.10612,2.732.78735.05529,1.41285.13051,2.03921.13863C230.3792,107.37337,244.08162,107.26277,246.3096,106.88423Z"/><path class="cls-1" d="M606.3999,258.55543c-.33128-2.18185-.36834-61.84713-.08882-64.12219.61779-.54781,1.37962-.34341,2.08244-.3456,5.66481-.01774,11.32967-.0102,16.99454-.01024q12.38177-.00007,24.76354.0015c.87851.00027,1.757.02155,2.58864.03246a36.39089,36.39089,0,0,1,.09784,9.87051,6.41269,6.41269,0,0,1-2.55057.18195q-14.68823.02017-29.37639.01677a6.38133,6.38133,0,0,0-2.53848.18045c-.12055.24449-.2504.38548-.25135.52733q-.04776,7.15974-.06777,14.31963c-.00113.39295.06813.78607.11153,1.25267a5.53047,5.53047,0,0,0,2.64491.28213q12.62449.02012,25.249.00812h2.74085c.596,1.68061.25888,3.2976.31954,4.8724.05864,1.52529.01263,3.05463.01263,4.52615a4.03071,4.03071,0,0,1-2.72253.43431q-12.50309.03211-25.0063.013h-2.98853a7.10127,7.10127,0,0,0-.35,1.47019c-.02318,4.93643-.018,9.87294-.00955,14.80946a11.80055,11.80055,0,0,0,.1359,1.24119,6.2375,6.2375,0,0,0,2.6662.25224q15.29508.01708,30.59022.01076c.875.00044,1.74991.049,2.58147.07391a40.21455,40.21455,0,0,1,.16923,9.91184,17.928,17.928,0,0,1-1.8117.17993c-4.69373.0158-9.38752.00913-14.08125.00916q-14.56682.00009-29.13358,0C608.29331,258.55546,607.41492,258.55543,606.3999,258.55543Z"/><path class="cls-1" d="M116.02949,126.47361c-.17271,3.29736-.05341,6.28027-.0934,9.25906-.04,2.98023.09924,5.965-.10034,9.04546a12.56269,12.56269,0,0,1-3.884.24879c-1.29342.03946-2.589.016-3.88358.0067-1.27741-.00916-2.55468-.035-3.65275-.051a3.58734,3.58734,0,0,1-.33253-.36309.46784.46784,0,0,1-.06917-.22286q-.03613-30.70494-.06414-61.4099c-.00044-.48438.02075-.96978.05861-1.4526a2.68189,2.68189,0,0,1,.24152-.59253,11.33929,11.33929,0,0,1,1.29734-.13713c8.81961-.0069,17.63928-.02291,26.45878.00854a33.228,33.228,0,0,1,11.40733,2.05049,21.51285,21.51285,0,0,1,11.8893,9.83311,20.98752,20.98752,0,0,1,2.3621,7.59486,24.0923,24.0923,0,0,1-1.33744,11.93326,19.89972,19.89972,0,0,1-8.88111,10.25237,29.344,29.344,0,0,1-10.27306,3.5,43.07148,43.07148,0,0,1-7.2537.50592c-3.72169-.03654-7.444-.00953-11.166-.00949Zm.07885-10.40978a3.62793,3.62793,0,0,0,.8065.22233c5.09468-.0003,10.19078.05366,15.28346-.05282A16.84847,16.84847,0,0,0,139.661,114.337a10.69734,10.69734,0,0,0,5.69513-7.16847,14.53932,14.53932,0,0,0,.28387-5.77879c-.6385-4.2256-2.78443-7.32459-6.89363-8.9261a21.981,21.981,0,0,0-8.052-1.50678q-6.42963-.00454-12.85924.00142c-.54563.00118-1.0911.08238-1.597.1233-.40276,2.15343-.50456,10.56716-.294,23.12191C115.95456,114.82652,116.052,115.44813,116.10834,116.06383Z"/><path class="cls-1" d="M307.14139,194.23938a63.89015,63.89015,0,0,1,11.4096.13878,6.79776,6.79776,0,0,1,.185,2.57908q.0173,16.14873.00356,32.29749a32.93756,32.93756,0,0,0,.88966,8.18208,20.914,20.914,0,0,0,.90721,2.76069,12.74541,12.74541,0,0,0,8.92137,7.88982,21.38453,21.38453,0,0,0,11.74082-.11474,12.55611,12.55611,0,0,0,8.16886-7.07662,20.94042,20.94042,0,0,0,1.85916-7.49462c.11311-1.69438.1432-3.39677.14521-5.09566q.01863-15.66308.01328-31.32615a6.64753,6.64753,0,0,1,.25384-2.73233,17.43663,17.43663,0,0,1,3.82924-.16333c1.21344-.03,2.4286-.02587,3.64228-.00119a19.53059,19.53059,0,0,1,3.953.16988,12.2692,12.2692,0,0,1,.17655,1.45511c.00379,11.7371.02974,23.47436-.02917,35.21121a36.27211,36.27211,0,0,1-1.65477,11.0002,23.31322,23.31322,0,0,1-15.74371,15.87063,34.88985,34.88985,0,0,1-18.20065.90523,31.47567,31.47567,0,0,1-6.6545-2.20806c-6.86606-3.13362-10.91407-8.65837-12.904-15.8137A38.66148,38.66148,0,0,1,306.79763,230.34q-.03718-16.99857-.006-33.99731A3.08865,3.08865,0,0,1,307.14139,194.23938Z"/><path class="cls-1" d="M367.42031,144.94781h-12.365c-2.27307-4.82609-4.177-9.79722-6.39636-14.51592-2.34105-.327-30.21376-.30946-32.32617.02348-2.02813,4.72591-4.09464,9.54135-6.13324,14.29175a73.019,73.019,0,0,1-12.03371.12778c-.24655-.94245.39858-1.66162.73579-2.415q6.838-15.27883,13.73435-30.53155,6.53336-14.48464,13.08356-28.96169c.29894-.66132.6242-1.31074.92251-1.9349a83.82791,83.82791,0,0,1,11.79914-.09965c.265.49.6017,1.03064.86209,1.60575Q352.96218,112.704,366.604,142.8779C366.86344,143.45165,367.06819,144.05016,367.42031,144.94781ZM344.3915,120.45455c-.81127-2.417-1.92139-4.65076-2.88681-6.94012-.9422-2.23435-1.91994-4.45369-2.87981-6.6806-.99189-2.30115-1.9474-4.61874-2.981-6.901a58.35056,58.35056,0,0,0-3.10626-6.777c-1.305,2.218-11.20313,25.46336-11.664,27.34951a2.35436,2.35436,0,0,0,.64222.19152q11.04065.01483,22.0813-.0008A3.412,3.412,0,0,0,344.3915,120.45455Z"/><path class="cls-1" d="M459.20462,198.98822c-1.25486,3.03184-2.45244,5.9253-3.7092,8.9618-.79574-.36484-1.44739-.64433-2.08229-.95773a35.61942,35.61942,0,0,0-18.3242-3.74445,19.23382,19.23382,0,0,0-7.02325,1.74453,7.1977,7.1977,0,0,0-4.31341,6.02452,6.06644,6.06644,0,0,0,2.52265,5.72315,14.98186,14.98186,0,0,0,5.20865,2.53145c3.03258.8577,6.08829,1.6357,9.14358,2.41047a63.16494,63.16494,0,0,1,9.50955,2.87091,33.327,33.327,0,0,1,4.33817,2.15239c5.89324,3.62547,8.07236,9.055,7.26435,15.749-.68693,5.691-3.75921,9.887-8.6179,12.81427a29.1488,29.1488,0,0,1-10.70387,3.72094,43.38776,43.38776,0,0,1-15.21574-.34009,45.07233,45.07233,0,0,1-11.94717-3.91044,20.79579,20.79579,0,0,1-4.71638-3.12689c1.174-3.13685,2.6276-6.0708,4.01151-9.19069.67063.41658,1.14745.7009,1.61244,1.00336a35.81149,35.81149,0,0,0,21.886,5.86561,32.42764,32.42764,0,0,0,5.4879-.92227,10.08552,10.08552,0,0,0,4.0819-2.06492,6.62181,6.62181,0,0,0-.26742-10.4956,16.85664,16.85664,0,0,0-5.23925-2.477c-3.03406-.8529-6.10365-1.57891-9.14308-2.41363-2.80483-.7703-5.63531-1.4862-8.36812-2.4667a29.54319,29.54319,0,0,1-5.64924-2.75815,14.5121,14.5121,0,0,1-7.08142-12.53419c-.23424-6.95782,2.74067-12.15135,8.54239-15.82439a26.70785,26.70785,0,0,1,10.70657-3.68509,44.84838,44.84838,0,0,1,22.216,2.30216A22.63016,22.63016,0,0,1,459.20462,198.98822Z"/><path class="cls-1" d="M159.901,204.4334a62.09656,62.09656,0,0,1-7.30533,6.94785c-.34232-.28017-.73083-.55522-1.06959-.88185-5.20149-5.01453-11.4596-6.70611-18.52233-5.96447a21.70791,21.70791,0,0,0-7.9173,2.13376,20.59184,20.59184,0,0,0-11.40486,16.44223,22.77058,22.77058,0,0,0,.70766,9.85917c2.6033,8.36347,8.363,13.23621,16.8748,14.92185a23.43,23.43,0,0,0,7.96944.17729,21.65505,21.65505,0,0,0,11.66873-5.506c.53278-.48073,1.06221-.96514,1.57148-1.42812a45.70772,45.70772,0,0,1,7.505,7.1245c-.69778.72-1.38494,1.50239-2.14691,2.20343a31.09774,31.09774,0,0,1-16.24782,7.61858,34.05532,34.05532,0,0,1-6.99813.57045,36.2425,36.2425,0,0,1-15.65743-3.83968c-9.92817-5.15677-15.53875-13.35474-16.98758-24.446a32.99776,32.99776,0,0,1,1.24469-14.15763,29.34745,29.34745,0,0,1,15.66379-18.27645c10.05886-4.94111,20.40841-5.136,30.80623-.9919a26.7638,26.7638,0,0,1,9.34777,6.40541C159.33338,203.68735,159.61107,204.07945,159.901,204.4334Z"/><path class="cls-1" d="M538.9977,204.23354a10.74368,10.74368,0,0,0-.23,3.16566q-.01041,24.0287-.0099,48.05741a9.39033,9.39033,0,0,1-.16282,2.80866,67.56884,67.56884,0,0,1-11.57319.11269,11.671,11.671,0,0,1-.23469-1.59118c-.03089-1.86032-.01411-3.72144-.01417-5.58224q-.00027-21.84427-.002-43.68854c-.00018-.96408-.02639-1.92815-.03842-2.75332-.74386-.7411-1.512-.51529-2.20862-.51784-5.42051-.01989-10.8412-.01121-16.26183-.01133-.802,0-1.60387,0-2.45428,0-.65313-1.76987-.308-3.47144-.33015-5.13044a17.23707,17.23707,0,0,1,.19378-4.77176c2.038-.33958,51.975-.34923,54.10169-.02581a38.19736,38.19736,0,0,1,.15227,9.58844c-.61163.52993-1.37031.32673-2.06939.32915-5.33963.01851-10.67938.01035-16.01907.01045C540.9536,204.23356,540.07028,204.23354,538.9977,204.23354Z"/><path class="cls-1" d="M526.2022,144.99258a6.19565,6.19565,0,0,1-.338-3.03015q-.019-23.539-.00955-47.07809c-.00006-.80889.00824-1.61815-.01411-2.4265-.011-.39465-.08361-.78761-.12262-1.1307a3.081,3.081,0,0,0-2.16913-.36632c-5.41962-.01668-10.8393-.00563-16.25892-.01362-.795-.00116-1.58988-.05743-2.33409-.08625-.50051-1.71038-.60261-6.7159-.23066-9.73846.78139-.57972,1.70485-.31142,2.56208-.313q17.4723-.03164,34.94455-.01423,7.03748,0,14.07491,0h2.50563a5.45619,5.45619,0,0,1,.30857,1.20007c.02479,2.58814.01838,5.17667.00522,7.765a6.86631,6.86631,0,0,1-.18577,1.05065c-.7572.04895-1.463.13269-2.16883.13413-5.41962.0111-10.8393.00325-16.25892.00946-.79675.00091-1.59349.04485-2.2981.0661a3.01,3.01,0,0,0-.41323,2.2192c-.01714,5.824-.0099,11.64816-.01,17.47226q-.00009,15.65225,0,31.3045V144.749c-2.02789.53446-3.959.22832-5.86184.27335C529.99945,145.06806,528.067,145.0066,526.2022,144.99258Z"/><path class="cls-1" d="M207.05376,258.307c-.28573-2.59831-.23132-62.09609.044-63.89744,1.62532-.41588,8.33178-.50023,11.45173-.12025a9.91419,9.91419,0,0,1,.23715,1.29422c.04348.72565.01826,1.45553.01829,2.18363q.00069,23.66355.00366,47.32709c.00028.95566.048,1.91134.07471,2.90525a5.80685,5.80685,0,0,0,2.73513.30057q13.95541.01939,27.91084.01005c.88213.0003,1.76429.0276,2.60293.04163a34.12745,34.12745,0,0,1,.07581,10.06206c-.42037.04343-.88424.12307-1.34982.13481C239.66322,258.83079,209.584,258.6771,207.05376,258.307Z"/></g></g></svg>