<svg role="img" viewBox="0 0 24 24" xmlns="http://www.w3.org/2000/svg" fill="#9999FF">
<title>Adobe Media Encoder</title>
<path d="M19.75.3H4.25C1.9.3 0 2.2 0 4.55v14.9c0 2.35 1.9 4.25 4.25 4.25h15.5c2.35 0 4.25-1.9 4.25-4.25V4.55C24 2.2 22.1.3 19.75.3zm-7.87 13.47H9.7l-1.3-3.82-1.29 3.82H5.03l-2-6.29h1.55l1.3 4.06 1.35-4.06h1.23l1.33 4.09 1.31-4.09h1.52l-1.99 6.29zm4.93.14c-.67 0-1.21-.2-1.62-.6-.41-.4-.61-.96-.61-1.68 0-.75.19-1.33.56-1.74.37-.41.88-.62 1.52-.62.61 0 1.08.18 1.41.55.33.37.5.88.5 1.53v.54h-2.49c.02.33.13.59.32.77.2.18.46.27.79.27.27 0 .52-.03.75-.08.23-.05.48-.14.74-.26v1.07c-.22.11-.46.19-.7.24-.24.05-.52.08-.87.01l.2-.02z"/>
</svg>
