<svg role="img" viewBox="0 0 24 24" xmlns="http://www.w3.org/2000/svg" fill="#0D6EFD">
<title>Spline</title>
<path d="M12 0C5.373 0 0 5.373 0 12s5.373 12 12 12 12-5.373 12-12S18.627 0 12 0zm0 2c5.523 0 10 4.477 10 10S17.523 22 12 22 2 17.523 2 12 6.477 2 12 2zm0 2.5C8.41 4.5 5.5 7.41 5.5 11c0 2.21 1.13 4.17 2.85 5.31-.17-.42-.26-.87-.26-1.31 0-2.07 1.68-3.75 3.75-3.75.65 0 1.26.17 1.79.47A3.749 3.749 0 0015.25 11c0-1.03-.41-1.96-1.08-2.64A6.478 6.478 0 0112 4.5zm0 5.25c.69 0 1.25.56 1.25 1.25S12.69 12.25 12 12.25 10.75 11.69 10.75 11 11.31 9.75 12 9.75zm.74 5.01A1.25 1.25 0 1112 16.5a1.25 1.25 0 01.74-1.74z"/>
</svg>
