<svg xmlns="http://www.w3.org/2000/svg" viewBox="0 0 30 30" fill="none">
<rect width="30" height="30" fill="#00D7FF" rx="12"/>
<path fill="#fff" d="M15 7.8c-3.96 0-7.2 3.24-7.2 7.2s3.24 7.2 7.2 7.2 7.2-3.24 7.2-7.2-3.24-7.2-7.2-7.2m0 12.96c-1.152 0-2.16-1.008-2.16-2.16s1.008-2.16 2.16-2.16 2.16 1.008 2.16 2.16-1.008 2.16-2.16 2.16m3.888-3.168c-.072.288-.144.576-.288.864q-.108-1.404-1.08-2.376C16.872 15.36 15.936 15 15 15c-.72 0-1.44.216-2.016.576s-1.08.936-1.296 1.584c-.144.432-.288.864-.288 1.296a4.3 4.3 0 0 1-.36-1.656c0-1.08.432-2.088 1.152-2.808A3.98 3.98 0 0 1 15 12.84c.792 0 1.584.216 2.232.648a3.93 3.93 0 0 1 1.44 1.8c.288.72.36 1.512.216 2.304m1.44-.576V16.8c0-1.44-.576-2.808-1.584-3.816S16.44 11.4 15 11.4c-1.08 0-2.088.288-3.024.936a5.63 5.63 0 0 0-2.016 2.448 6.2 6.2 0 0 0-.432 2.304c-.144-.72-.288-1.368-.288-2.088 0-1.512.576-3.024 1.656-4.104S13.488 9.24 15 9.24c1.152 0 2.232.36 3.168.936a5.7 5.7 0 0 1 2.088 2.592c.504 1.08.648 2.232.36 3.384-.072.288-.144.576-.288.864"/>
</svg>
