<svg width="180" height="180" viewBox="0 0 180 180" fill="none" xmlns="http://www.w3.org/2000/svg">
<path d="M0 90C0 66.7381 0 55.1072 2.94314 45.6623C9.29823 25.2681 25.2681 9.29823 45.6623 2.94314C55.1072 0 66.7381 0 90 0V0C113.262 0 124.893 0 134.338 2.94314C154.732 9.29823 170.702 25.2681 177.057 45.6623C180 55.1072 180 66.7381 180 90V90C180 113.262 180 124.893 177.057 134.338C170.702 154.732 154.732 170.702 134.338 177.057C124.893 180 113.262 180 90 180V180C66.7381 180 55.1072 180 45.6623 177.057C25.2681 170.702 9.29823 154.732 2.94314 134.338C0 124.893 0 113.262 0 90V90Z" fill="#1A325E"/>
<path d="M69.9883 129.902C64.6538 127.291 59.893 123.631 55.987 119.137C52.0811 114.644 49.1091 109.408 47.2464 103.739C45.3837 98.0708 44.6681 92.084 45.1418 86.1324C45.6156 80.1808 47.269 74.385 50.0046 69.0872C52.7401 63.7894 56.5024 59.0967 61.0693 55.2863C65.6362 51.476 70.9151 48.6254 76.5945 46.9022C82.274 45.1791 88.2388 44.6185 94.137 45.2537C100.035 45.8889 105.747 47.7069 110.936 50.6006L106.85 58.513C98.9085 54.371 89.7069 53.3964 81.0826 55.7837C72.4583 58.1711 65.046 63.7448 60.3255 71.3919C55.605 79.039 53.9236 88.1969 55.6173 97.037C57.311 105.877 62.255 113.749 69.4622 119.081C76.6693 124.413 85.6094 126.812 94.4973 125.801C103.385 124.789 111.567 120.44 117.409 113.623C123.251 106.805 126.323 98.0204 126.012 89.0229C125.721 80.6015 122.487 72.5734 116.91 66.3382V74.3401H112.41V56.3401H130.41V60.8401H123.993C130.338 68.1291 134.175 77.3193 134.881 87.0339C135.655 97.6664 132.627 108.227 126.345 116.81C120.064 125.394 110.941 131.435 100.623 133.844C90.3051 136.253 79.4715 134.871 70.0769 129.947L69.9883 129.902Z" fill="white"/>
<path d="M108.36 75.5101L103.626 82.2902L91.17 62.6402L83.565 67.5002L87.9177 74.3401H67.455V83.3401H75.42L64.125 99.4951L71.505 104.625L86.4 83.3401H93.645L98.054 90.2686L93.4651 96.8401H86.2199L81.81 89.9102L76.23 97.8752L88.695 117.54L96.3 112.68L91.9472 105.84H112.41V96.8401H104.445L115.74 80.6851L108.36 75.5101Z" fill="white"/>
</svg>
