<svg width="27" height="26" viewBox="0 0 27 26" fill="none" xmlns="http://www.w3.org/2000/svg">
	<path d="M18.2493 19.2158C17.8243 19.2166 17.4051 19.1174 17.0255 18.9263C16.6386 18.734 16.3162 18.4327 16.0982 18.0596C15.8665 17.6761 15.7464 17.2355 15.7515 16.7874V9.2127C15.7518 9.12762 15.7345 9.0434 15.7008 8.96528C15.6671 8.88716 15.6177 8.81679 15.5557 8.75857C15.4647 8.66948 15.3496 8.609 15.2246 8.58459C15.0997 8.56018 14.9703 8.57292 14.8525 8.62122C14.7346 8.66953 14.6336 8.75129 14.5617 8.85641C14.4898 8.96152 14.4503 9.08539 14.4481 9.2127V16.7874C14.4543 17.1137 14.39 17.4374 14.2595 17.7366C14.1291 18.0357 13.9356 18.3032 13.6923 18.5207C13.2029 18.976 12.5564 19.2245 11.8879 19.214C11.5662 19.2228 11.2461 19.1661 10.947 19.0474C10.6478 18.9288 10.3759 18.7506 10.1477 18.5237C9.91948 18.2968 9.73973 18.0258 9.61936 17.7274C9.49899 17.4289 9.44049 17.1091 9.44741 16.7874V9.2127C9.44797 9.12773 9.43102 9.04356 9.39762 8.96543C9.36422 8.8873 9.31508 8.81688 9.25328 8.75857C9.18465 8.69214 9.10304 8.6406 9.01356 8.6072C8.92407 8.57379 8.82865 8.55923 8.73328 8.56444C8.63784 8.55859 8.54224 8.57285 8.45267 8.60629C8.36309 8.63973 8.28154 8.69161 8.21328 8.75857C8.15124 8.81679 8.10184 8.88716 8.06815 8.96528C8.03445 9.0434 8.01718 9.12762 8.01741 9.2127V19.2158H6.24248V9.2127C6.23535 8.88628 6.29924 8.56221 6.42973 8.26293C6.56022 7.96364 6.75419 7.69628 6.99821 7.47937C7.48725 7.0234 8.13407 6.77486 8.80261 6.78603C9.12417 6.77751 9.44411 6.83436 9.74305 6.95314C10.042 7.07192 10.3137 7.25016 10.5417 7.47705C10.7698 7.70394 10.9493 7.97476 11.0696 8.2731C11.1899 8.57145 11.2483 8.8911 11.2414 9.2127V16.7874C11.2408 16.8725 11.2578 16.9569 11.2916 17.035C11.3253 17.1132 11.3749 17.1835 11.4373 17.2415C11.5799 17.3667 11.7632 17.4357 11.9529 17.4357C12.1427 17.4357 12.326 17.3667 12.4686 17.2415C12.5306 17.1833 12.58 17.1129 12.6137 17.0348C12.6474 16.9567 12.6647 16.8724 12.6645 16.7874V9.2127C12.6557 8.89177 12.7127 8.57245 12.832 8.27436C12.9512 7.97628 13.1301 7.70573 13.3578 7.47937C13.8292 7.03408 14.4531 6.78601 15.1015 6.78601C15.75 6.78601 16.3739 7.03408 16.8453 7.47937C17.0729 7.70573 17.2519 7.97628 17.3711 8.27436C17.4904 8.57245 17.5474 8.89177 17.5386 9.2127V16.7874C17.5381 16.8723 17.555 16.9565 17.5884 17.0346C17.6218 17.1128 17.6709 17.1832 17.7327 17.2415C17.8754 17.3667 18.0587 17.4357 18.2484 17.4357C18.4382 17.4357 18.6215 17.3667 18.7641 17.2415C18.8264 17.1835 18.8761 17.1132 18.9098 17.035C18.9435 16.9569 18.9606 16.8725 18.9599 16.7874V6.7843H20.7487V16.7874C20.7528 17.2353 20.6329 17.6757 20.4021 18.0596C20.184 18.4327 19.8617 18.7339 19.4747 18.9263C19.0944 19.1171 18.6748 19.2162 18.2493 19.2158Z" fill="white"/>
	<path fill-rule="evenodd" clip-rule="evenodd" d="M13.5 24.2667C19.7224 24.2667 24.7667 19.2224 24.7667 13C24.7667 6.77759 19.7224 1.73333 13.5 1.73333C7.27759 1.73333 2.23333 6.77759 2.23333 13C2.23333 19.2224 7.27759 24.2667 13.5 24.2667ZM13.5 26C20.6797 26 26.5 20.1797 26.5 13C26.5 5.8203 20.6797 0 13.5 0C6.3203 0 0.5 5.8203 0.5 13C0.5 20.1797 6.3203 26 13.5 26Z" fill="white"/>
</svg>
